<?xml version="1.0" encoding="UTF-8"?>
<svg id="Calque_2" data-name="Calque 2" xmlns="http://www.w3.org/2000/svg" viewBox="0 0 130.53 172.08">
  <defs>
    <style>
      .cls-1 {
        fill: #010101;
      }

      .cls-2 {
        fill: #010207;
      }

      .cls-3 {
        fill: #010206;
      }

      .cls-4 {
        fill: #6083c2;
      }

      .cls-5 {
        fill: #0f24e2;
      }

      .cls-6 {
        fill: #83c1eb;
      }

      .cls-7 {
        fill: #1979a7;
      }

      .cls-8 {
        fill: #55a0c6;
      }


         path { transform-box: fill-box; transform-origin: center; }

        #icone-bdd { animation: animIconeBDD 1s infinite ease-in normal; }

        @keyframes animIconeBDD { 
          0% { transform: scale(.8);} 
          100% { transform: scale(.850);}}
    </style>
  </defs>
  <g id="icone-bdd" data-name="Calque 1">
    <g>
      <path class="cls-1" d="M130.48,103.51v-34.87s-.81-3.4-.81-3.4c.09-1.46.87-2.81.86-4.41l-.19-34.16c-.02-2.98-1.86-5.68-3.55-7.83-3.09-3.93-6.98-6.55-11.38-8.84C103.15,3.63,87.45.9,73.96.16l-17.45-.16c-8.81.62-17.58,1.94-26.33,4.24-5.18,1.37-9.9,3.29-14.69,5.47-1.62.74-1.65,2.47-1.75,3.7h0c.85.68,2.06,1.89,3.34,1.28,1.46-.71,2.93-1.37,4.4-1.99.65-.27,1.29-.54,1.94-.79.5-.2.99-.39,1.49-.56.32-.12.62-.23.93-.34h0c.34-.14.69-.26,1.04-.37.27-.1.55-.2.82-.28.54-.18,1.09-.36,1.63-.52.48-.15.97-.29,1.45-.43.48-.14.98-.27,1.46-.4.49-.14.98-.26,1.49-.38.23-.06.47-.12.71-.16.27-.06.53-.12.8-.18,19-4.2,38.68-4.34,57.79-.52.34.07.68.14,1.03.21.15.02.29.05.44.09.68.14,1.34.29,2,.45.16.03.32.08.48.12.51.12,1.02.25,1.52.39.62.16,1.23.33,1.83.51.56.16,1.1.33,1.64.5,1.52.48,3.02,1.01,4.5,1.59,1.07.42,2.13.86,3.18,1.33.7.32,1.39.64,2.09.98h0c.32.16.62.32.94.46h0c.31.17.62.33.92.49,0,0,0,0,0,0,.31.16.62.33.92.5h0c.3.19.61.36.91.54h0c.6.37,1.2.75,1.78,1.15.59.4,1.16.82,1.72,1.27.21.16.4.33.6.5.18.15.35.3.52.45l.02.02c.09.08.19.16.27.25.09.08.18.16.27.24l.09.09c.2.18.38.37.56.56.19.19.37.38.55.56,4.52,4.89,4.72,10.05.21,14.99-.22.25-.46.49-.7.73-.33.33-.67.65-1.02.97-.3.27-.61.53-.92.79-.31.26-.62.51-.95.75-1.13.86-2.34,1.67-3.63,2.42-.41.25-.84.49-1.26.72-.02,0-.03.02-.04.03-.43.23-.86.45-1.3.68-.58.3-1.18.58-1.78.86-.7.33-1.41.63-2.13.93-.73.3-1.45.59-2.19.86-.74.28-1.48.55-2.22.8-1.21.41-2.42.8-3.64,1.15-1.21.35-2.42.68-3.61.97-.48.12-.94.24-1.41.34-.04,0-.09.02-.13.03-.67.15-1.33.3-1.99.44-.58.12-1.15.24-1.71.35-.56.11-1.11.21-1.66.31-20.62,3.59-46.59,2.87-65.99-4.61-.21-.09-.44-.17-.67-.27-.67-.27-1.37-.56-2.09-.87-.48-.21-.97-.43-1.45-.66-.49-.23-.98-.47-1.47-.72-.62-.31-1.24-.64-1.86-.98-.62-.34-1.22-.7-1.82-1.08-.96-.6-1.89-1.23-2.77-1.92-.44-.33-.87-.68-1.28-1.04-.42-.36-.81-.73-1.19-1.1-2.07-2.08-3.57-4.44-3.97-7.08-.47-3.04.85-6.02,2.93-8.21,1.19-1.25,1.38-2.85.32-4.08C5.5,14.08.18,22.66.16,26.95L0,61.82l.87,3.41-.85,3.41v34.87l.84,3.41-.83,3.39L0,126.45c0,1.47,1.05,2.6,2.37,2.66.03,0,.06,0,.09,0,.15,0,.29,0,.44-.03.15-.03.29-.06.44-.1.72-.22,1.37-.73,1.59-1.45.03-.07.04-.15.05-.22.02-.07.03-.15.03-.23l.15-3.41c6.85,6.79,17.09,10.91,26.54,13.19,3.44.83,6.9,1.53,10.38,2.1h.03c9.06,1.5,18.23,2.1,27.38,1.82,2-.06,4-.16,6.01-.31.62-.04,1.24-.09,1.86-.15.43-.03.86-.07,1.28-.11.38-.03.75-.07,1.14-.11.45-.04.9-.09,1.35-.15.52-.06,1.04-.12,1.56-.18,4.71-.58,9.39-1.39,14.05-2.45.69-.15,1.38-.31,2.07-.48,9.52-2.31,19.59-6.35,26.62-13.23l-.06,20.3c0,2.87-1.73,5.36-3.64,7.38-.13.14-.26.27-.39.4-.14.14-.27.27-.41.4-.14.14-.27.27-.42.39-.15.14-.29.27-.44.39-.29.26-.59.5-.9.75-.31.25-.62.5-.95.74-.51.39-1.05.76-1.61,1.12-.41.27-.83.53-1.27.8-.43.27-.87.52-1.32.77-.59.33-1.2.66-1.81.97-.31.15-.62.31-.94.45-.28.14-.56.27-.85.4-1.94.89-3.96,1.69-5.98,2.4-.61.21-1.21.41-1.81.6-.4.13-.8.26-1.2.38-.33.1-.66.2-.99.3-.53.15-1.06.3-1.59.44-.37.1-.74.21-1.1.3-1.06.27-2.1.52-3.12.74-.62.15-1.23.27-1.84.39-1.71.34-3.42.65-5.13.92-.96.15-1.91.29-2.87.43-.75.1-1.51.21-2.28.3-.86.1-1.7.2-2.56.29-.86.09-1.74.17-2.61.25-.57.05-1.15.1-1.72.14-.75.05-1.51.1-2.25.15-.07,0-.15,0-.22.02-.74.04-1.47.08-2.21.1-.45.03-.91.04-1.37.05-.72.03-1.44.04-2.16.05-.72,0-1.44.02-2.16.02s-1.44,0-2.16-.02c-.72,0-1.44-.03-2.16-.05-.46,0-.92-.03-1.37-.05-.74-.03-1.47-.06-2.21-.1-.08,0-.15,0-.22-.02-.74-.04-1.5-.09-2.25-.15-.57-.03-1.15-.09-1.72-.14-.87-.08-1.74-.16-2.6-.25-.86-.09-1.71-.19-2.57-.29-1.14-.14-2.27-.29-3.4-.46-.58-.09-1.17-.17-1.75-.27-1.71-.27-3.42-.57-5.13-.92-7.15-1.42-13.75-3.55-20.13-6.8-.64-.33-1.32-.69-2.01-1.11-.34-.21-.69-.41-1.04-.64-.35-.21-.7-.44-1.05-.69-.35-.23-.7-.49-1.05-.74-.35-.25-.69-.51-1.03-.79-.35-.28-.7-.56-1.04-.86-.27-.23-.54-.47-.8-.72-.09-.07-.16-.15-.24-.23-.11-.1-.22-.21-.33-.33-.32-.32-.62-.64-.92-.98-.11-.14-.22-.27-.33-.4-.14-.15-.26-.31-.38-.47-.37-.47-.7-.96-.98-1.45-.1-.16-.19-.33-.27-.5-.09-.15-.16-.32-.25-.48t0,0c-.15-.33-.28-.66-.39-.99h0c-.05-.17-.09-.34-.14-.5-.02-.07-.03-.14-.04-.21-.03-.13-.05-.27-.08-.4-.05-.3-.08-.61-.08-.92l-.04-5.71c0-.14,0-.27-.03-.39-.07-.65-.33-1.19-.72-1.58-.04-.05-.09-.09-.14-.13-.04-.04-.09-.09-.15-.12-.1-.07-.21-.14-.32-.2-.15-.09-.3-.15-.47-.19-.05-.02-.1-.03-.16-.04-.07-.03-.15-.04-.23-.04-.16-.03-.33-.03-.5-.03-.87.03-2.34.85-2.33,2.05l.09,7.65c.03,3,1.73,5.57,3.56,7.84,3.06,3.79,6.86,6.44,11.17,8.7,12.24,6.43,27.65,9.1,41.44,9.97l17.02.08c1.63,0,3.29-.26,4.95-.39,12.65-1.08,26.08-3.79,37.34-9.67,4.3-2.24,8.12-4.89,11.17-8.72,1.69-2.13,3.53-4.87,3.55-7.82l.16-35.14-.87-3.41.85-3.42ZM32.37,53.46c20.57,4.83,41.8,5.01,62.51.76,11.04-2.52,22.44-6.15,30.54-14.25l-.08,20.52c-.02,5.9-7.53,11.19-12.97,13.84-1.57.76-2.22,2.11-1.72,3.64.89,1.45,2.43,1.76,3.94.97,3.84-2.02,7.37-4.2,10.58-7.44-.26,3.18-2.16,5.56-4.37,7.62-7.97,7.44-22.26,11.47-33.24,13.17-15.51,2.39-31.16,2.31-46.62-.34-10.39-1.79-23.69-5.78-31.24-12.83-2.22-2.06-4.08-4.44-4.41-7.64,6.9,6.91,16.97,10.76,26.23,13.07,22.33,5.6,48.51,5.46,70.68-.83,1.54-.44,2.46-1.94,1.96-3.3-.58-1.59-2.1-1.95-3.7-1.49-18.58,5.36-41.67,5.96-60.66,2.37-10.16-1.93-23.12-5.83-30.43-12.95-2.16-2.1-4.18-4.75-4.19-7.85l-.09-20.54c7.36,7.38,17.3,10.93,27.29,13.49ZM38.6,133.29c-9.53-1.83-21.86-5.8-28.76-12.28-2.17-2.04-4.18-4.32-4.49-7.56,8.18,7.73,19.94,11.72,30.74,13.94,19.88,4.09,40.17,3.99,60-.36,10.35-2.28,21.19-6.19,29.07-13.57-.8,6.41-8.86,11.4-14.53,13.97-20.74,9.4-49.81,10.11-72.04,5.85ZM125.34,102.2c0,.52-.06,1.04-.18,1.55-.02.09-.03.16-.05.24-.02.09-.04.16-.07.25-.03.14-.09.28-.13.43-.11.33-.24.65-.39.98-.09.19-.18.38-.28.56-.06.12-.13.24-.2.35-.03.04-.04.09-.08.13-.06.1-.13.21-.2.32-.13.21-.27.41-.42.62-.45.64-.98,1.27-1.56,1.87-.19.21-.38.4-.58.59-.13.13-.26.25-.39.37-.13.12-.26.24-.39.36-.15.15-.32.28-.47.41-.21.19-.44.37-.66.55-.77.62-1.57,1.2-2.39,1.75-.18.13-.36.25-.54.36-.6.4-1.21.77-1.81,1.11-.4.23-.8.45-1.2.67-.8.44-1.57.82-2.29,1.16-20.57,9.55-49.7,10.29-71.87,6.17-.62-.11-1.24-.24-1.88-.38-1.28-.27-2.59-.56-3.92-.9-.67-.17-1.34-.34-2.01-.53-2.7-.74-5.43-1.63-8.09-2.69-.33-.12-.67-.26-.99-.4-.33-.13-.65-.27-.98-.41-.65-.28-1.29-.57-1.93-.87s-1.26-.61-1.87-.93c-1.22-.64-2.4-1.33-3.52-2.05-.56-.36-1.1-.74-1.63-1.12s-1.03-.78-1.51-1.19c-.25-.2-.48-.4-.71-.62-.24-.21-.46-.41-.68-.62l-.21-.21c-1.13-1.12-2.22-2.38-2.99-3.76-.07-.11-.13-.22-.18-.33-.08-.15-.15-.3-.21-.44-.13-.28-.24-.57-.33-.86-.03-.08-.05-.16-.08-.25-.15-.44-.24-.91-.28-1.39,0-.09-.03-.18-.03-.27-.02-.16-.03-.33-.03-.5l-.09-20.43c7.45,7.29,17.1,10.82,26.96,13.37,22.23,5.25,45.34,5.19,67.52-.26.59-.16,1.19-.33,1.78-.5.59-.17,1.19-.35,1.77-.53.59-.18,1.17-.37,1.75-.56.42-.14.84-.27,1.25-.42.06-.02.12-.03.18-.06.67-.23,1.32-.46,1.98-.7.65-.24,1.3-.49,1.94-.75.5-.21,1-.41,1.5-.62.83-.36,1.65-.74,2.46-1.15,1.36-.66,2.68-1.39,3.97-2.17.52-.33,1.03-.65,1.53-.98.5-.34,1.01-.69,1.5-1.05.5-.36.98-.74,1.46-1.13.72-.58,1.42-1.19,2.11-1.83.23-.21.46-.43.68-.65l-.09,20.41Z"/>
      <path class="cls-8" d="M112.71,57.49h-.03s.03,0,.03,0c.08,0,.15.03.22.05.05,0,.09.03.15.04.09.03.18.06.27.1-.1-.05-.21-.09-.33-.13-.1-.03-.21-.06-.31-.08ZM112.29,57.46c-.11,0-.23.02-.34.03.19-.02.37-.03.55-.02.06,0,.11,0,.17.02-.02,0-.03,0-.05,0-.11-.02-.22-.03-.33-.03ZM111.95,57.49s-.03,0-.05,0c.02,0,.03,0,.05,0ZM110.6,58.07c.21-.17.44-.31.71-.42.2-.08.4-.13.59-.16-.2.03-.39.07-.59.15-.27.11-.5.25-.71.43ZM96.88,62.67c-.18-.03-.38-.02-.57,0-.6.09-1.1.33-1.47.68.37-.35.87-.59,1.47-.68.32-.04.62-.03.9.05-.03-.02-.08-.03-.12-.03-.07-.02-.14-.03-.21-.03ZM44.44,66.35c-.94-.14-1.88-.29-2.82-.44.94.16,1.88.32,2.82.45.7.1,1.26.38,1.65.74-.39-.38-.94-.65-1.65-.75ZM34.94,64.55c.35.09.7.17,1.05.25.06,0,.12.02.17.03-.06-.02-.12-.03-.17-.04-.35-.08-.7-.15-1.05-.24ZM30.42,63.37c-.41-.12-.81-.24-1.22-.37-.51-.15-1.01-.3-1.52-.47.5.16,1.01.33,1.51.47.29.09.58.18.88.27.4.12.8.23,1.21.34.4.12.8.22,1.21.33-.23-.06-.46-.12-.69-.19-.46-.12-.92-.26-1.39-.39ZM14.14,56.49c-.13-.08-.27-.15-.4-.19.14.05.27.11.4.2.22.13.44.26.66.38-.22-.13-.44-.26-.66-.39Z"/>
      <path class="cls-4" d="M113.08,57.59c.09.03.18.06.27.1-.1-.05-.21-.09-.33-.13.02,0,.04,0,.06.03ZM112.71,57.5c.08,0,.15.03.22.05.03,0,.05,0,.09.02-.1-.03-.21-.06-.31-.08h0ZM112.51,57.47s.09,0,.12,0c-.11-.02-.22-.03-.33-.03.08,0,.15,0,.21.02ZM35.99,64.8c.06,0,.12.02.17.03-.06-.02-.12-.03-.17-.04h0ZM31.28,63.62c.17.04.35.09.52.14-.46-.12-.92-.26-1.39-.39.29.09.57.16.86.25ZM30.08,63.27c.11.03.23.06.34.09-.41-.12-.81-.24-1.22-.37.29.09.58.18.88.27Z"/>
      <path class="cls-7" d="M94.88,54.22c-20.71,4.24-41.94,4.07-62.51-.76-9.99-2.56-19.93-6.12-27.29-13.49l.09,20.54c.02,3.1,2.04,5.75,4.19,7.85,7.31,7.12,20.26,11.02,30.43,12.95,19,3.59,42.08,2.99,60.66-2.37,1.6-.46,3.11-.1,3.7,1.49l6.5-2.45c-.5-1.52.15-2.87,1.72-3.64,5.44-2.64,12.95-7.93,12.97-13.84l.08-20.52c-8.09,8.09-19.5,11.72-30.54,14.25ZM46.2,70.65c-.36.38-.84.64-1.4.74-.15.03-.32.04-.49.04-.1,0-.21,0-.32,0-.09,0-.19-.02-.29-.03-.93-.15-1.87-.31-2.82-.48-1.89-.33-3.81-.71-5.72-1.14-1.44-.33-2.87-.67-4.3-1.04-.96-.25-1.91-.51-2.85-.8-1.42-.42-2.82-.87-4.21-1.36-.92-.33-1.84-.67-2.75-1.03-1.31-.52-2.6-1.08-3.87-1.68-1.27-.6-2.5-1.23-3.7-1.91-.6-.33-1.18-.68-1.76-1.04-.11-.07-.21-.14-.3-.21-.09-.08-.17-.15-.25-.23-.75-.78-.89-1.87-.44-2.84.09-.2.21-.39.38-.56.52-.59,1.36-.98,2.19-.86.15.02.28.05.42.09.14.04.27.11.4.19.22.13.44.26.66.39.34.21.69.4,1.04.6,1.16.63,2.33,1.23,3.53,1.8.98.45,1.96.89,2.95,1.3,1.75.72,3.53,1.37,5.36,1.96.5.16,1.01.33,1.51.47.41.13.81.25,1.22.37.46.13.92.27,1.39.39.23.07.46.13.69.19.8.21,1.63.42,2.44.61.35.09.7.16,1.05.24.05.02.11.03.17.04.41.09.82.18,1.23.27.7.15,1.41.29,2.11.42.7.14,1.41.27,2.11.38.94.15,1.88.31,2.82.44.71.1,1.27.38,1.65.75.57.53.83,1.27.76,2.02-.06.62-.29,1.14-.65,1.53ZM98.39,66.94c-.08.09-.17.16-.26.23-.2.15-.42.28-.63.36-.08.03-.15.05-.22.07-.13.03-.25.04-.37.06-.41.04-.79,0-1.12-.09-.09-.03-.16-.06-.24-.09-.15-.06-.28-.14-.41-.23-.13-.09-.25-.19-.35-.3-.33-.34-.56-.79-.65-1.27-.15-.84.05-1.61.55-2.16l.15-.15c.37-.36.87-.6,1.47-.68.2-.03.39-.03.57,0,.07,0,.14.02.21.03.04,0,.09.02.12.03.06,0,.11.03.16.05.08.03.15.05.22.09h0c.21.1.42.24.59.39.06.05.12.1.17.16.34.34.58.76.68,1.16.23.95-.12,1.79-.66,2.34ZM114.09,61.69c-.09.09-.19.18-.3.27-.21.17-.47.31-.75.41-.42.15-.91.17-1.38.04-.1-.02-.21-.05-.31-.09-.09-.04-.2-.09-.29-.14-.08-.04-.15-.09-.23-.15-.15-.1-.28-.22-.41-.36-.17-.18-.32-.39-.44-.63-.3-.6-.34-1.4-.04-2.1.09-.21.22-.42.39-.61.04-.04.08-.09.13-.14.04-.04.09-.09.14-.13.21-.18.44-.32.71-.43.33-.13.67-.19.98-.19.11,0,.22,0,.33.03.02,0,.03,0,.05,0h.03c.1.02.21.04.31.08.11.03.22.08.33.13s.21.11.31.18c.06.03.11.08.16.12.06.05.12.1.17.15.27.26.48.56.61.92.33.91.16,1.92-.5,2.63Z"/>
      <path class="cls-5" d="M125.17,71.5c-.26,3.18-2.16,5.56-4.37,7.62-7.97,7.44-22.26,11.47-33.24,13.17-15.51,2.39-31.16,2.31-46.62-.34-10.39-1.79-23.69-5.78-31.24-12.83-2.22-2.06-4.08-4.44-4.41-7.64,6.9,6.91,16.97,10.76,26.23,13.07,22.33,5.6,48.51,5.46,70.68-.83,1.54-.44,2.46-1.94,1.96-3.3l6.5-2.45c.89,1.45,2.43,1.76,3.94.97,3.84-2.02,7.37-4.2,10.58-7.44Z"/>
      <path class="cls-5" d="M125.16,113.47c-.8,6.41-8.86,11.4-14.53,13.97-20.74,9.4-49.81,10.11-72.04,5.85-9.53-1.83-21.86-5.8-28.76-12.28-2.17-2.04-4.18-4.32-4.49-7.56,8.18,7.73,19.94,11.72,30.74,13.94,19.88,4.09,40.17,3.99,60-.36,10.35-2.28,21.19-6.19,29.07-13.57Z"/>
      <g>
        <path class="cls-8" d="M2.37,129.1h0s.06,0,.09,0h-.09ZM31.7,136.84c-9.45-2.28-19.7-6.41-26.54-13.19h0c6.85,6.79,17.09,10.92,26.54,13.2,3.44.83,6.9,1.53,10.38,2.1-3.47-.57-6.94-1.27-10.38-2.1ZM42.11,138.95c9.06,1.5,18.23,2.1,27.38,1.82-9.15.27-18.31-.34-27.38-1.82ZM98.8,136.83c-.69.16-1.38.33-2.07.49.69-.15,1.38-.31,2.07-.48,9.52-2.31,19.59-6.35,26.62-13.23h0c-7.03,6.87-17.1,10.91-26.62,13.22Z"/>
        <path class="cls-7" d="M98.8,136.84c-.69.17-1.38.33-2.07.48-4.65,1.05-9.34,1.87-14.05,2.45-.52.06-1.04.12-1.56.18-.45.05-.9.1-1.35.15-.39.04-.76.08-1.14.11-.43.04-.86.08-1.28.11-.62.05-1.23.1-1.86.15-2,.15-4,.25-6.01.31-9.15.28-18.32-.33-27.38-1.82h-.03c-3.48-.56-6.94-1.27-10.38-2.1-9.45-2.28-19.7-6.41-26.54-13.19l-.15,3.41c0,.08,0,.16-.03.23,0,.08-.03.15-.05.22-.22.72-.87,1.22-1.59,1.45-.15.04-.29.08-.44.1-.15.03-.29.03-.44.03-.03,0-.06,0-.09,0l.02,6.68c.17,0,.34,0,.5.03.09,0,.16.02.23.04.06,0,.11.02.16.04.17.04.33.1.47.19.11.05.22.12.32.2.05.03.1.07.15.12.05.03.09.08.14.13.39.39.65.93.72,1.58.03.13.03.26.03.39l.04,5.71c0,.31.03.62.08.92.03.14.04.27.08.4,0,.07.03.14.04.21.04.16.09.33.14.5h0c.11.34.24.67.39,1t0,0c.09.16.16.33.25.48.09.17.17.33.27.5.28.49.62.98.98,1.45.12.16.24.32.38.47.11.14.22.27.33.4.29.33.6.66.92.98.11.11.22.22.33.33.08.09.15.16.24.23.26.25.52.49.8.72.33.3.68.58,1.04.86.33.27.68.53,1.03.79.35.26.7.5,1.05.74.35.24.7.47,1.05.69.35.22.7.44,1.04.64.69.4,1.37.78,2.01,1.1,6.38,3.25,12.98,5.38,20.13,6.8,1.7.34,3.41.64,5.13.92.58.09,1.17.18,1.75.27,1.13.17,2.26.33,3.4.46.86.1,1.71.2,2.57.29.86.09,1.73.17,2.6.25.57.05,1.15.09,1.72.14.75.05,1.51.1,2.25.15.08,0,.15,0,.22.02.74.04,1.47.08,2.21.1.45.03.91.04,1.37.05.72.03,1.44.04,2.16.05.72,0,1.44.02,2.16.02s1.44,0,2.16-.02c.72,0,1.44-.03,2.16-.05.46,0,.92-.03,1.37-.05.74-.03,1.47-.06,2.21-.1.08,0,.15,0,.22-.02.74-.04,1.5-.09,2.25-.15.57-.04,1.15-.09,1.72-.14.87-.08,1.75-.16,2.61-.25.86-.09,1.7-.19,2.56-.29.76-.09,1.52-.2,2.28-.3.97-.14,1.92-.28,2.87-.43,1.72-.28,3.42-.58,5.13-.92.6-.12,1.21-.25,1.84-.39,1.02-.22,2.06-.47,3.12-.74.37-.09.74-.2,1.1-.3.53-.15,1.06-.29,1.59-.44.33-.1.66-.2.99-.3.39-.12.8-.25,1.2-.38.6-.19,1.2-.39,1.81-.6,2.02-.71,4.04-1.51,5.98-2.4.28-.13.56-.27.85-.4.32-.15.63-.3.94-.45.62-.32,1.22-.64,1.81-.97.44-.25.89-.5,1.32-.77.44-.27.86-.52,1.27-.8.56-.37,1.1-.74,1.61-1.12.33-.24.64-.49.95-.74.31-.25.61-.5.9-.75.15-.13.29-.26.44-.39.15-.13.28-.26.42-.39.14-.13.27-.27.41-.4.14-.14.27-.27.39-.4,1.91-2.02,3.63-4.51,3.64-7.38l.06-20.3c-7.03,6.88-17.1,10.92-26.62,13.23ZM46.84,152.82c-.23,1.65-1.69,2.4-3.37,2.12-10.94-1.88-22.14-4.59-31.62-10.4-1.23-.75-1.65-2.11-1.14-3.26.5-1.11,2.05-2,3.32-1.27,9.09,5.31,19.59,8.38,30.25,9.87,1.77.25,2.76,1.51,2.56,2.94ZM97.7,151c-1.22.61-2.57.12-3.22-.89-.78-1.21-.43-2.97,1.04-3.63,1.45-.65,2.85.06,3.37,1.26.55,1.23,0,2.67-1.2,3.26ZM112.82,145.96c-1.27.27-2.52-.33-2.99-1.7-.39-1.13.26-2.76,1.85-3.17,1.49-.38,2.71.67,2.98,1.73.37,1.52-.41,2.84-1.83,3.15Z"/>
        <path class="cls-1" d="M46.84,152.82c-.23,1.65-1.69,2.4-3.37,2.12-10.94-1.88-22.14-4.59-31.62-10.4-1.23-.75-1.65-2.11-1.14-3.26.5-1.11,2.05-2,3.32-1.27,9.09,5.31,19.59,8.38,30.25,9.87,1.77.25,2.76,1.51,2.56,2.94Z"/>
        <path class="cls-3" d="M112.82,145.96c-1.27.27-2.52-.33-2.99-1.7-.39-1.13.26-2.76,1.85-3.17,1.49-.38,2.71.67,2.98,1.73.37,1.52-.41,2.84-1.83,3.15Z"/>
        <path class="cls-3" d="M97.7,151c-1.22.61-2.57.12-3.22-.89-.78-1.21-.43-2.97,1.04-3.63,1.45-.65,2.85.06,3.37,1.26.55,1.23,0,2.67-1.2,3.26Z"/>
      </g>
      <path class="cls-1" d="M46.85,69.12c-.06.62-.29,1.14-.65,1.53-.36.38-.84.64-1.4.74-.15.03-.32.04-.49.04-.1,0-.21,0-.32,0-.09-.02-.19-.03-.29-.04-.93-.15-1.87-.31-2.82-.47-1.89-.33-3.81-.71-5.72-1.14-1.44-.33-2.87-.67-4.3-1.04-.96-.26-1.91-.52-2.85-.8-1.42-.43-2.82-.87-4.21-1.36-.92-.33-1.84-.67-2.75-1.03-1.31-.52-2.6-1.08-3.87-1.68-1.27-.6-2.5-1.23-3.7-1.91-.6-.34-1.18-.69-1.76-1.05-.11-.06-.21-.14-.3-.21-.09-.08-.17-.15-.25-.23-.75-.78-.89-1.87-.44-2.84.09-.2.21-.39.38-.56.52-.59,1.36-.98,2.19-.86.15.02.28.05.42.09.14.04.27.11.4.19.22.13.44.26.66.39.34.21.69.4,1.04.6,1.16.63,2.33,1.23,3.53,1.8.98.45,1.96.89,2.95,1.3,1.75.72,3.53,1.37,5.36,1.96.5.17,1.01.32,1.52.47.41.13.81.25,1.22.37.46.13.92.27,1.39.39.23.07.46.13.69.19.8.21,1.63.42,2.44.61.35.09.7.16,1.05.24.05.02.11.03.17.04.41.09.82.18,1.23.27.7.15,1.41.29,2.11.42.7.14,1.41.27,2.11.38.94.15,1.88.31,2.82.44.71.1,1.27.38,1.65.75.57.53.83,1.27.76,2.02Z"/>
      <path class="cls-3" d="M98.39,66.94c-.08.09-.17.16-.26.23-.2.15-.42.28-.63.36-.08.03-.15.04-.22.06-.13.03-.25.05-.37.07-.41.04-.79,0-1.12-.09-.09-.03-.16-.06-.24-.09-.15-.07-.28-.15-.41-.23-.13-.09-.25-.19-.35-.3-.33-.34-.56-.79-.65-1.27-.15-.84.05-1.61.55-2.16l.15-.15c.37-.36.87-.6,1.47-.68.2-.03.39-.03.57,0,.07,0,.14.02.21.03.04,0,.09.02.12.03.06.02.11.03.16.05.08.03.15.05.22.09h0c.21.1.42.24.59.39.06.05.12.1.17.16.34.34.58.76.68,1.16.23.95-.12,1.79-.66,2.34Z"/>
      <path class="cls-3" d="M114.09,61.69c-.09.09-.19.18-.3.27-.21.16-.47.3-.75.4-.42.15-.91.17-1.38.05-.1-.03-.21-.06-.31-.09-.09-.04-.2-.09-.29-.14-.08-.04-.15-.09-.23-.15-.15-.1-.28-.22-.41-.36-.17-.18-.32-.39-.44-.63-.3-.6-.34-1.4-.04-2.1.09-.21.22-.42.39-.61.04-.04.08-.09.13-.14.04-.04.09-.09.14-.13.21-.18.44-.32.71-.43.2-.08.4-.12.59-.15.02,0,.03,0,.05,0,.11-.02.23-.03.34-.03s.22,0,.33.03c.02,0,.03,0,.05,0h.03c.1.02.21.04.31.08.11.03.22.08.33.13.11.05.21.11.31.18.06.03.11.08.16.12.06.05.12.1.17.15.27.26.48.56.61.92.33.91.16,1.92-.5,2.63Z"/>
      <g>
        <path class="cls-8" d="M99.55,94.9c-22.18,5.44-45.29,5.5-67.52.26-9.87-2.56-19.51-6.08-26.96-13.37h0c7.45,7.3,17.1,10.82,26.96,13.38,22.23,5.25,45.34,5.19,67.52-.26.59-.16,1.19-.33,1.78-.5-.59.17-1.19.33-1.78.5ZM124.74,82.44c.23-.21.46-.43.68-.65h0c-.22.21-.45.43-.68.65Z"/>
        <path class="cls-7" d="M124.74,82.44c-.69.64-1.39,1.25-2.11,1.83-.48.39-.97.77-1.46,1.13-.49.37-.98.72-1.5,1.05-.5.34-1.01.67-1.53.98-1.29.79-2.61,1.51-3.97,2.17-.81.41-1.63.79-2.46,1.15-.5.21-.99.42-1.5.62-.64.27-1.29.51-1.94.75-.66.25-1.32.48-1.98.7-.06.03-.12.04-.18.06-.41.15-.83.28-1.25.42-.58.19-1.16.38-1.75.56-.58.18-1.18.36-1.77.53-.59.17-1.19.34-1.78.5-22.18,5.44-45.29,5.5-67.52.26-9.87-2.56-19.51-6.08-26.96-13.37l.09,20.43c0,.17,0,.34.03.5,0,.09.02.18.03.27.04.48.14.94.28,1.39.03.09.05.17.08.25.09.29.21.58.33.86.07.15.14.29.21.44.05.11.11.22.18.33.77,1.39,1.86,2.64,2.99,3.76.07.06.14.13.21.2.22.21.45.43.68.63.23.21.47.41.71.62.49.41.99.8,1.51,1.19s1.07.75,1.63,1.12c1.11.73,2.29,1.41,3.52,2.05.61.32,1.23.63,1.87.93s1.27.59,1.93.87c.33.14.65.28.98.41.33.14.66.27.99.4,2.65,1.04,5.39,1.94,8.09,2.69.67.19,1.34.36,2.01.53,1.33.33,2.64.63,3.92.9.63.13,1.27.26,1.88.37,22.18,4.12,51.3,3.38,71.87-6.17.73-.34,1.51-.73,2.29-1.15.39-.21.8-.44,1.2-.67.6-.35,1.21-.72,1.81-1.11.18-.11.36-.23.54-.36.81-.55,1.62-1.13,2.39-1.75.22-.18.44-.36.66-.55.15-.13.32-.27.47-.41.14-.12.27-.24.39-.36.13-.12.26-.24.39-.37.21-.19.39-.39.58-.59.58-.6,1.1-1.22,1.56-1.87.15-.21.29-.41.42-.62.07-.1.14-.21.2-.32.03-.04.05-.09.08-.13.07-.11.14-.23.2-.35.1-.18.2-.37.28-.56.15-.33.28-.65.39-.98.04-.15.09-.29.13-.43.03-.09.05-.16.07-.25.02-.08.03-.15.05-.24.12-.51.18-1.03.18-1.55l.09-20.41c-.22.22-.45.44-.68.65ZM46.83,111.1c-.2,1.48-1.62,2.34-3.25,2.06-11.07-1.91-22.03-4.53-31.67-10.37-1.28-.78-1.79-2.16-1.13-3.41.61-1.16,2.19-1.87,3.52-1.04,8.51,5.25,19.88,8.26,30.04,9.77,1.76.27,2.7,1.42,2.49,2.99ZM97.65,109.24c-1.17.61-2.72.03-3.27-1.05-.68-1.33-.18-2.98,1.21-3.52,1.39-.54,2.73.02,3.33,1.32.53,1.14,0,2.61-1.27,3.25ZM113.08,104.11c-1.15.41-2.54-.04-3.13-1.35-.49-1.08-.17-2.77,1.4-3.38,1.41-.55,2.81.32,3.23,1.42.51,1.33-.12,2.81-1.51,3.31Z"/>
        <path class="cls-1" d="M46.83,111.1c-.2,1.48-1.62,2.34-3.25,2.06-11.07-1.91-22.03-4.53-31.67-10.37-1.28-.78-1.79-2.16-1.13-3.41.61-1.16,2.19-1.87,3.52-1.04,8.51,5.25,19.88,8.26,30.04,9.77,1.76.27,2.7,1.42,2.49,2.99Z"/>
        <path class="cls-2" d="M113.08,104.11c-1.15.41-2.54-.04-3.13-1.35-.49-1.08-.17-2.77,1.4-3.38,1.41-.55,2.81.32,3.23,1.42.51,1.33-.12,2.81-1.51,3.31Z"/>
        <path class="cls-3" d="M97.65,109.24c-1.17.61-2.72.03-3.27-1.05-.68-1.33-.18-2.98,1.21-3.52,1.39-.54,2.73.02,3.33,1.32.53,1.14,0,2.61-1.27,3.25Z"/>
      </g>
      <g>
        <path class="cls-6" d="M111.52,29.83c-6.9,8.55-20.51,13.1-31.38,15.35-18.65,3.86-37.78,3.68-56.35.33-.21-.09-.44-.17-.67-.26-.67-.27-1.37-.56-2.09-.87-.48-.21-.97-.43-1.45-.66-.49-.23-.98-.47-1.47-.72-.62-.31-1.24-.64-1.86-.98-.62-.35-1.22-.71-1.82-1.08-.96-.61-1.89-1.24-2.77-1.92-.44-.34-.87-.69-1.28-1.04-.42-.36-.81-.73-1.19-1.1-2.07-2.08-3.57-4.44-3.97-7.08-.47-3.04.85-6.02,2.93-8.21,1.19-1.25,1.38-2.85.32-4.08,1.43-1.64,3.79-2.56,5.28-4.07.85.68,2.06,1.88,3.34,1.27,1.46-.7,2.93-1.37,4.4-1.99.65-.27,1.29-.54,1.94-.79.5-.2.99-.39,1.49-.56.32-.12.62-.23.93-.34h0c.34-.14.69-.26,1.04-.37.27-.1.55-.2.82-.28.54-.18,1.09-.35,1.63-.52.48-.15.97-.29,1.45-.43.48-.14.98-.27,1.46-.4.49-.14.98-.26,1.49-.38.23-.06.47-.12.71-.16.27-.07.53-.13.8-.19,19-4.2,38.68-4.34,57.79-.52.34.07.68.14,1.03.22.15.02.29.05.44.09.68.14,1.34.29,2,.45.16.03.32.08.48.12.51.12,1.02.25,1.52.39.62.16,1.22.33,1.83.51.56.16,1.1.33,1.64.5,1.52.48,3.02,1.01,4.5,1.59,1.07.41,2.13.86,3.18,1.33.7.31,1.39.63,2.09.97h0s0,.02,0,.02c3.61,4.83,3.62,11.07-.25,15.86Z"/>
        <path class="cls-7" d="M122.09,36.01c-.22.25-.46.49-.7.73-.33.33-.67.65-1.02.97-.3.27-.61.53-.92.79-.31.26-.62.51-.95.75-1.13.86-2.34,1.67-3.63,2.42-.41.25-.83.49-1.26.72-.02,0-.03.02-.04.03-.43.23-.86.45-1.3.68-.58.3-1.18.58-1.78.86-.7.33-1.41.63-2.13.93-.73.3-1.45.59-2.19.86-.74.27-1.48.54-2.22.8-1.21.41-2.42.8-3.64,1.15-1.21.35-2.42.68-3.61.97-.47.12-.94.23-1.41.34-.04,0-.09.02-.13.03-.67.15-1.33.3-1.99.44-.58.12-1.15.24-1.71.35-.56.1-1.11.21-1.66.3-20.62,3.59-46.59,2.87-65.99-4.61,18.58,3.35,37.7,3.53,56.35-.33,10.87-2.25,24.47-6.8,31.38-15.35,3.87-4.79,3.86-11.03.25-15.86.32.15.62.31.94.45h0c.31.17.62.33.92.49,0,0,0,0,0,0,.31.16.62.33.92.5h0c.3.19.61.36.91.54h0c.6.37,1.2.75,1.78,1.15.59.4,1.16.82,1.72,1.27.21.16.4.33.6.5.18.15.35.3.52.45l.02.02c.09.08.19.16.27.25.09.08.18.16.27.24l.09.09c.2.18.38.37.56.56.19.19.37.38.55.56,4.52,4.89,4.72,10.05.21,14.99Z"/>
        <path class="cls-8" d="M112.71,14.42c-.32-.15-.62-.3-.94-.45h0v-.02c.32.15.63.31.95.47Z"/>
      </g>
    </g>
  </g>
</svg>